<svg width="281.2000061035156px" height="90.8px" xmlns="http://www.w3.org/2000/svg" viewBox="109.3999969482422 29.6 281.2000061035156 90.8" style="background: rgba(0, 0, 0, 0);" preserveAspectRatio="xMidYMid"><defs><filter id="editing-hole" x="-100%" y="-100%" width="300%" height="300%"><feFlood flood-color="#000" result="black"></feFlood><feMorphology operator="dilate" radius="2" in="SourceGraphic" result="erode"></feMorphology><feGaussianBlur in="erode" stdDeviation="4" result="blur"></feGaussianBlur><feOffset in="blur" dx="2" dy="2" result="offset"></feOffset><feComposite operator="atop" in="offset" in2="black" result="merge"></feComposite><feComposite operator="in" in="merge" in2="SourceGraphic" result="inner-shadow"></feComposite></filter></defs><g filter="url(#editing-hole)"><g transform="translate(97.59500122070312, 98.53000068664551)"><path d="M31.44-14.31L31.44-46.06L39.06-46.06L39.06 0L31.44 0L15.94-27.25L15.94-41.63L31.44-14.31ZM13.38 0L5.75 0L5.75-46.06L13.38-46.06L13.38 0ZM61.13-15.38L73.88-46.06L82.44-46.06L68.75-18.75L68.75 0L61.13 0L61.13-15.38ZM48.13-46.06L56.69-46.06L63.63-28.13L60.25-19.94L48.13-46.06ZM113.19-46L129.19 0L121.44 0L109.50-34.50L97.44 0L89.63 0L105.75-46L113.19-46ZM105.25-14.63L113.63-14.63L115.44-9.56L103.50-9.56L105.25-14.63ZM146.56 0L138.94 0L138.94-46.06L146.56-46.06L146.56 0ZM168.88-46.06L154.13-22.38L170.13 0L161.44 0L149.13-18.13L149.13-27.25L160.31-46.06L168.88-46.06ZM201.81-38.94L201.81-38.94L201.81-38.94Q201.50-39.06 201.06-39.38L201.06-39.38L201.06-39.38Q200.63-39.69 199.81-39.97L199.81-39.97L199.81-39.97Q199-40.25 197.75-40.44L197.75-40.44L197.75-40.44Q196.50-40.63 194.56-40.50L194.56-40.50L194.56-46.81L194.56-46.81Q197.31-46.75 200.16-46.22L200.16-46.22L200.16-46.22Q203-45.69 204.75-44.56L204.75-44.56L204.75-44.56Q204.38-43.75 203.88-42.78L203.88-42.78L203.88-42.78Q203.38-41.81 202.94-40.97L202.94-40.97L202.94-40.97Q202.50-40.13 202.19-39.56L202.19-39.56L202.19-39.56Q201.88-39 201.81-38.94ZM180.25-33.94L180.25-33.94L180.25-33.94Q180.25-36.69 181.19-38.88L181.19-38.88L181.19-38.88Q182.13-41.06 183.72-42.72L183.72-42.72L183.72-42.72Q185.31-44.38 187.47-45.34L187.47-45.34L187.47-45.34Q189.63-46.31 192-46.63L192-46.63L192-40.06L192-40.06Q190-39.38 188.69-37.66L188.69-37.66L188.69-37.66Q187.38-35.94 187.38-34.19L187.38-34.19L187.38-34.19Q187.38-31.75 188.69-30.25L188.69-30.25L188.69-30.25Q190-28.75 192-27.63L192-27.63L192-20.50L192-20.50Q189.94-21.50 187.88-22.66L187.88-22.66L187.88-22.66Q185.81-23.81 184.13-25.38L184.13-25.38L184.13-25.38Q182.44-26.94 181.34-29L181.34-29L181.34-29Q180.25-31.06 180.25-33.94ZM179.94-3.06L181.25-8.44L181.25-8.44Q182.13-7.94 183.47-7.47L183.47-7.47L183.47-7.47Q184.81-7 186.25-6.59L186.25-6.59L186.25-6.59Q187.69-6.19 189.13-5.94L189.13-5.94L189.13-5.94Q190.56-5.69 191.81-5.69L191.81-5.69L192-5.69L192 0.25L191.88 0.25L191.88 0.25Q190.38 0.25 188.78 0.09L188.78 0.09L188.78 0.09Q187.19-0.06 185.56-0.44L185.56-0.44L185.56-0.44Q183.94-0.81 182.47-1.47L182.47-1.47L182.47-1.47Q181-2.13 179.94-3.06L179.94-3.06ZM194.56-19.06L194.56-26.38L194.56-26.38Q196.63-25.44 198.78-24.38L198.78-24.38L198.78-24.38Q200.94-23.31 202.69-21.78L202.69-21.78L202.69-21.78Q204.44-20.25 205.56-18.06L205.56-18.06L205.56-18.06Q206.69-15.88 206.69-12.63L206.69-12.63L206.69-12.63Q206.69-10.38 205.84-8.25L205.84-8.25L205.84-8.25Q205-6.13 203.47-4.41L203.47-4.41L203.47-4.41Q201.94-2.69 199.69-1.50L199.69-1.50L199.69-1.50Q197.44-0.31 194.56 0.06L194.56 0.06L194.56-5.94L194.56-5.94Q199.69-7.19 199.69-12.75L199.69-12.75L199.69-12.75Q199.69-14.94 198.25-16.38L198.25-16.38L198.25-16.38Q196.81-17.81 194.56-19.06L194.56-19.06ZM242.19-46.06L249.69-46.06L249.69 0L242.19 0L242.19-20.75L224.81-20.75L224.81-25.88L242.19-25.88L242.19-46.06ZM214.63 0L214.63-46.06L222.25-46.06L222.25 0L214.63 0ZM283.06-46L299.06 0L291.31 0L279.38-34.50L267.31 0L259.50 0L275.63-46L283.06-46ZM275.13-14.63L283.50-14.63L285.31-9.56L273.38-9.56L275.13-14.63Z" fill="#ccc"></path></g></g><style>text {
  font-size: 64px;
  font-family: Arial Black;
  dominant-baseline: central;
  text-anchor: middle;
}</style></svg>